<svg xmlns="http://www.w3.org/2000/svg" viewBox="0 0 12.7 12.7"><defs><clipPath id="a" clipPathUnits="userSpaceOnUse"><path d="M2.114 1.985V8.55h8.788V1.985Zm7.307 2.223c.005.003.01.007.017.008h.004l.008.001.003.001h.055c.013 0 .025.003.038.002h.001c.01.013.006.013 0 .014-.006.003-.012.003-.018.003v.001h.021v.001c.004 0 .005.002.004.006l.002-.002.001-.009h.022a.036.036 0 0 1-.006.021v.006h.005v.002-.002.003h.005v.014H9.57c-.002.003-.002.006-.004.007a.218.218 0 0 1-.01.01c0 .001 0 0 0 0l-.002.002-.005.003H9.55c0 .002.002.001.002.003l-.002.004a.093.093 0 0 1-.02.019v.002c0 .003-.006.004-.009.006l-.004.002-.008.003-.001.003v.006l-.001.004v.002h-.002l-.002.001a.009.009 0 0 1-.005.001H9.451l-.006-.001h-.002c-.002.002-.002.001-.004.001h-.006v.001H9.397c-.002 0-.001 0-.001-.002h-.003v.002l-.001-.002h-.003v.002H9.327v-.002a10.754 10.754 0 0 0-.014.002H9.296h.001v-.011a.205.205 0 0 1-.004.007l-.001-.007c0-.004.003-.005.005-.006v-.004h.004v-.003c.002-.007.005-.006.007-.007l-.007-.016.005-.003c.005-.002.002 0 .006-.001l-.001-.002c.002-.005.003-.01.006-.014.001-.003.01-.002.011-.002h.013c-.002-.008-.005-.015-.004-.022 0-.003.005-.002.007-.003h.013l.01.001c-.001-.001-.003 0-.002-.005h.005l-.001-.002v-.013c0-.002.002-.002.003-.002v-.006c.001-.002.004-.002.007-.002h.002-.002c0 .003.002.004.003.006v-.008h.002l.002.002v-.002h.006v-.006h.032l-.012-.007zm-.123.148h.004V4.34zm.28-.092v.007-.007zm0 .007v.004-.004zm0-.006v-.001.001zm.029 0 .02.031c.002 0 .003-.002.004-.004V4.29h.003l.006.008v.001l.011.004c.006.005.012.01.017.017.016.02.021.035.033.06.008.024.01.026.015.048 0 .002.003.006 0 .007-.01.006-.022.008-.033.012v.016c-.002.007 0 .016-.007.02-.002.002-.006 0-.01.001 0 .005.003.013-.001.013-.008 0-.015-.004-.023-.007l-.001.006c.001.009-.005.01-.016.007l-.008.001v.015h-.001v.003c-.008.003-.016.002-.025.002l.001.004.002.011v.008a.034.034 0 0 1-.008.018v.004l-.013.013h-.002c-.006.003-.01.003-.015.003h.003l-.007.002h-.003l.007-.002c-.013 0-.011.003-.02-.002V4.58c-.003 0-.006.002-.008 0-.001 0-.001-.007-.001-.002a.018.018 0 0 1-.001-.006v-.004c0-.002-.002-.003-.001-.005h.001V4.517h.001v-.003l-.002-.003v-.017l.001-.003V4.49l-.001-.003V4.48c.003.002 0-.001-.002-.004V4.464h.004l.001-.001h-.004l.001-.002V4.423l.002-.004-.001-.005V4.392l-.001.002v-.015c0-.005 0-.006.002-.01.002-.003.003-.001.004-.003v-.002l-.001.002v-.012h.003c.001-.002.005-.004.011-.003h.001v-.003h.013l.001-.002h.001v-.001l.001.002c.002-.01.001-.02.007-.028.002-.002.006 0 .009.002 0-.003 0-.006.002-.008a.05.05 0 0 1 .013-.012l.005-.001a.032.032 0 0 1 0-.021c0-.004.002-.006.004-.009l.006-.004zm-.04.014c.001 0 0 0 0 0zm-.257.07v.002-.002zm-.003.004-.001.002.004-.001h-.003zm.226.007a.04.04 0 0 0-.001.004v.001l.005-.005zm.14.103v.001-.001zm-.097.09-.001.001h.002-.001zm.002.001c.002 0 0 .004 0 .005h.002v-.003l-.002-.002zm-.012.006-.002.004.002-.001V4.56zm-1.93 1.404c.004 0 .012.003.028.004v.013c.004 0 .006.001.006.004h.001v.001c.002.002.002.004.002.005v.005L7.67 6v.004l.002.002v.012c0-.002 0-.002 0 0v.032l-.001.003V6.067l.002.005v.005l-.002.002c.002-.004.002-.003.002-.001s0 .004-.002.006V6.13l.001.005c-.003.007 0 .002 0 0v.017-.002.002l.001.004V6.183a.01.01 0 0 1-.003.008V6.19v.006l-.004.005.002-.004h-.002l-.006.004-.002.002c0 .001-.003.004-.006.004h-.005l-.002-.001v.004l-.004.006v.002l-.001.001-.002.004c-.002.004-.004.009-.007.011-.004.003-.009.002-.013 0-.002 0-.001-.002-.002-.003a.205.205 0 0 1-.007.01l-.004.004c.002 0-.002.002-.003.003l-.004.004c-.002 0-.003.002-.004.003l-.005.011-.014.013c-.001.001-.003.002-.004.001-.005-.001-.01-.001-.015-.005-.002-.002 0-.006 0-.009 0-.003-.003-.006-.001-.008l.002-.002v-.009l.006-.005.005-.004.003-.009a.025.025 0 0 1-.007-.016V6.21a.072.072 0 0 1-.002-.023l.001-.014a.11.11 0 0 1 .007-.028l-.002-.01-.001-.024c0-.011 0-.022.003-.033v-.005l.004-.009c.002-.004.002-.01.003-.013l.001-.011.002-.01.002-.01.002-.007v-.017h.027l.001-.005h.007v-.006c.001-.003.004-.004.006-.006l.002-.003a.03.03 0 0 0 .005-.003c0-.005 0-.007.003-.007zm.034.021v.002-.002zm-.011-.017v.002l.003.001-.003-.003zm.01.072.003.003v-.001L7.67 6.04zm-.024.167-.002.003h.001l.001-.003zm-.032.027h-.001.002zm-.003 0-.004.004.004-.002v-.001zm-.028.027c0 .004.002.01-.005.014l.006-.005v-.006l-.001-.003zm-.013.142.03.007-.001.004v-.001.006a.01.01 0 0 1 .004.005h.001l.002.001c.002.002.001.005.002.007v.002l.004.008h.001l.003.002c.002 0 .004 0 .006.002.005.003.006.008.008.013l.001.005.02.003v.003l-.001.005s0-.001 0 0v.007c.01-.004.016-.007.018.002V6.506h.002v.003l.006-.001c-.002-.005 0 0 0 .005v.007l-.002.002V6.544c0 .002-.001.002-.002.003v.017l.001.001V6.606c.001.002.002.005.001.007v.034l-.002.003v.007c0 .003.002.005.001.007v.001l.001.005-.004.001v.002c.002 0 .004-.003.004-.001V6.712h-.01l-.003.001-.009.003-.009.002c-.002 0-.002-.004-.003-.006-.003.001-.003 0-.004-.002L7.63 6.71v-.001c-.01-.016.007.01-.01-.012l-.005-.007-.002.001c-.005-.002-.011-.003-.016-.006l-.003-.006-.001-.004-.002-.008v-.008h.005l-.005-.001V6.648c-.002.002-.005.003-.007.001h-.007c-.004 0-.004.002-.009 0-.003 0-.002-.005-.002-.008l.001-.004-.002-.008-.002-.028.001-.01v-.067l.002-.013.003-.018.002-.005c-.013-.006-.012-.008-.014-.017v-.009c.001-.013 0 .003.001-.006v-.008l.001-.005.004-.013V6.43l.002-.005.002-.005c0-.003 0-.006.002-.01zm.028.017c0-.001.002 0-.001-.002-.005 0-.019 0-.015.002.004.003.01.003.015.003l.001-.003zm-.001.003-.001.003.006-.002h-.005zm-.004.217-.004.001h.004zm0 .001zm-.004 0-.006.001.002.001.004-.002z" style="fill:red;fill-opacity:1;fill-rule:nonzero;stroke:none;stroke-width:.264583"/></clipPath><clipPath id="d" clipPathUnits="userSpaceOnUse"><path d="M2.114 4.137v6.586h8.788V4.137Zm7.307.071c.005.003.01.007.017.008h.004l.008.001.003.001h.055c.013 0 .025.003.038.002h.001c.01.013.006.013 0 .014-.006.003-.012.003-.018.003v.001h.021v.001c.004 0 .005.002.004.006l.002-.002.001-.009h.022a.036.036 0 0 1-.006.021v.006h.005v.002-.002.003h.005v.014H9.57c-.002.003-.002.006-.004.007a.218.218 0 0 1-.01.01c0 .001 0 0 0 0l-.002.002-.005.003H9.55c0 .002.002.001.002.003l-.002.004a.093.093 0 0 1-.02.019v.002c0 .003-.006.004-.009.006l-.004.002-.008.003-.001.003v.006l-.001.004v.002h-.002l-.002.001a.009.009 0 0 1-.005.001H9.451l-.006-.001h-.002c-.002.002-.002.001-.004.001h-.006v.001H9.397c-.002 0-.001 0-.001-.002h-.003v.002l-.001-.002h-.003v.002H9.327v-.002a10.754 10.754 0 0 0-.014.002H9.296h.001v-.011a.205.205 0 0 1-.004.007l-.001-.007c0-.004.003-.005.005-.006v-.004h.004v-.003c.002-.007.005-.006.007-.007l-.007-.016.005-.003c.005-.002.002 0 .006-.001l-.001-.002c.002-.005.003-.01.006-.014.001-.003.01-.002.011-.002h.013c-.002-.008-.005-.015-.004-.022 0-.003.005-.002.007-.003h.013l.01.001c-.001-.001-.003 0-.002-.005h.005l-.001-.002v-.013c0-.002.002-.002.003-.002v-.006c.001-.002.004-.002.007-.002h.002-.002c0 .003.002.004.003.006v-.008h.002l.002.002v-.002h.006v-.006h.032l-.012-.007zm-.123.148h.004V4.34zm.28-.092v.007-.007zm0 .007v.004-.004zm0-.006v-.001.001zm.029 0 .02.031c.002 0 .003-.002.004-.004V4.29h.003l.006.008v.001l.011.004c.006.005.012.01.017.017.016.02.021.035.033.06.008.024.01.026.015.048 0 .002.003.006 0 .007-.01.006-.022.008-.033.012v.016c-.002.007 0 .016-.007.02-.002.002-.006 0-.01.001 0 .005.003.013-.001.013-.008 0-.015-.004-.023-.007l-.001.006c.001.009-.005.01-.016.007l-.008.001v.015h-.001v.003c-.008.003-.016.002-.025.002l.001.004.002.011v.008a.034.034 0 0 1-.008.018v.004l-.013.013h-.002c-.006.003-.01.003-.015.003h.003l-.007.002h-.003l.007-.002c-.013 0-.011.003-.02-.002V4.58c-.003 0-.006.002-.008 0-.001 0-.001-.007-.001-.002a.018.018 0 0 1-.001-.006v-.004c0-.002-.002-.003-.001-.005h.001V4.517h.001v-.003l-.002-.003v-.017l.001-.003V4.49l-.001-.003V4.48c.003.002 0-.001-.002-.004V4.464h.004l.001-.001h-.004l.001-.002V4.423l.002-.004-.001-.005V4.392l-.001.002v-.015c0-.005 0-.006.002-.01.002-.003.003-.001.004-.003v-.002l-.001.002v-.012h.003c.001-.002.005-.004.011-.003h.001v-.003h.013l.001-.002h.001v-.001l.001.002c.002-.01.001-.02.007-.028.002-.002.006 0 .009.002 0-.003 0-.006.002-.008a.05.05 0 0 1 .013-.012l.005-.001a.032.032 0 0 1 0-.021c0-.004.002-.006.004-.009l.006-.004zm-.04.014c.001 0 0 0 0 0zm-.257.07v.002-.002zm-.003.004-.001.002.004-.001h-.003zm.226.007a.04.04 0 0 0-.001.004v.001l.005-.005zm.14.103v.001-.001zm-.097.09-.001.001h.002-.001zm.002.001c.002 0 0 .004 0 .005h.002v-.003l-.002-.002zm-.012.006-.002.004.002-.001V4.56zm-1.93 1.404c.004 0 .012.003.028.004v.013c.004 0 .006.001.006.004h.001v.001c.002.002.002.004.002.005v.005L7.67 6v.004l.002.002v.012c0-.002 0-.002 0 0v.032l-.001.003V6.067l.002.005v.005l-.002.002c.002-.004.002-.003.002-.001s0 .004-.002.006V6.13l.001.005c-.003.007 0 .002 0 0v.017-.002.002l.001.004V6.183a.01.01 0 0 1-.003.008V6.19v.006l-.004.005.002-.004h-.002l-.006.004-.002.002c0 .001-.003.004-.006.004h-.005l-.002-.001v.004l-.004.006v.002l-.001.001-.002.004c-.002.004-.004.009-.007.011-.004.003-.009.002-.013 0-.002 0-.001-.002-.002-.003a.205.205 0 0 1-.007.01l-.004.004c.002 0-.002.002-.003.003l-.004.004c-.002 0-.003.002-.004.003l-.005.011-.014.013c-.001.001-.003.002-.004.001-.005-.001-.01-.001-.015-.005-.002-.002 0-.006 0-.009 0-.003-.003-.006-.001-.008l.002-.002v-.009l.006-.005.005-.004.003-.009a.025.025 0 0 1-.007-.016V6.21a.072.072 0 0 1-.002-.023l.001-.014a.11.11 0 0 1 .007-.028l-.002-.01-.001-.024c0-.011 0-.022.003-.033v-.005l.004-.009c.002-.004.002-.01.003-.013l.001-.011.002-.01.002-.01.002-.007v-.017h.027l.001-.005h.007v-.006c.001-.003.004-.004.006-.006l.002-.003a.03.03 0 0 0 .005-.003c0-.005 0-.007.003-.007zm.034.021v.002-.002zm-.011-.017v.002l.003.001-.003-.003zm.01.072.003.003v-.001L7.67 6.04zm-.024.167-.002.003h.001l.001-.003zm-.032.027h-.001.002zm-.003 0-.004.004.004-.002v-.001zm-.028.027c0 .004.002.01-.005.014l.006-.005v-.006l-.001-.003zm-.013.142.03.007-.001.004v-.001.006a.01.01 0 0 1 .004.005h.001l.002.001c.002.002.001.005.002.007v.002l.004.008h.001l.003.002c.002 0 .004 0 .006.002.005.003.006.008.008.013l.001.005.02.003v.003l-.001.005s0-.001 0 0v.007c.01-.004.016-.007.018.002V6.506h.002v.003l.006-.001c-.002-.005 0 0 0 .005v.007l-.002.002V6.544c0 .002-.001.002-.002.003v.017l.001.001V6.606c.001.002.002.005.001.007v.034l-.002.003v.007c0 .003.002.005.001.007v.001l.001.005-.004.001v.002c.002 0 .004-.003.004-.001V6.712h-.01l-.003.001-.009.003-.009.002c-.002 0-.002-.004-.003-.006-.003.001-.003 0-.004-.002L7.63 6.71v-.001c-.01-.016.007.01-.01-.012l-.005-.007-.002.001c-.005-.002-.011-.003-.016-.006l-.003-.006-.001-.004-.002-.008v-.008h.005l-.005-.001V6.648c-.002.002-.005.003-.007.001h-.007c-.004 0-.004.002-.009 0-.003 0-.002-.005-.002-.008l.001-.004-.002-.008-.002-.028.001-.01v-.067l.002-.013.003-.018.002-.005c-.013-.006-.012-.008-.014-.017v-.009c.001-.013 0 .003.001-.006v-.008l.001-.005.004-.013V6.43l.002-.005.002-.005c0-.003 0-.006.002-.01zm.028.017c0-.001.002 0-.001-.002-.005 0-.019 0-.015.002.004.003.01.003.015.003l.001-.003zm-.001.003-.001.003.006-.002h-.005zm-.004.217-.004.001h.004zm0 .001zm-.004 0-.006.001.002.001.004-.002z" style="fill:red;fill-opacity:1;fill-rule:nonzero;stroke:none;stroke-width:.264583"/></clipPath><clipPath id="b" clipPathUnits="userSpaceOnUse"><path d="M7.405 4.23v1.998h.011a.12.12 0 0 1 .003-.013l.002-.01.005-.016.009-.02c.002-.004.006-.007.009-.01.008-.009.018-.013.028-.018-.004-.01-.009-.014-.016-.023l.04-.035v-.006c.007-.02.008-.028.015-.028.006 0 .02.005.051.012.002 0 .002.003.002.005l.004.009h.003v-.004l.004-.01c.002-.003.002-.009.003-.012l.001-.012.002-.009.003-.01.001-.008v-.017h.027l.002-.004v.001h.006v-.007l.006-.006.002-.003.005-.002c0-.006 0-.008.003-.008.004 0 .012.003.028.004v.013c.004 0 .006.001.006.004h.001v.001c.002.002.002.004.002.005v.005L7.671 6v.004l.002.002v.012c0-.002 0-.002 0 0v.032l-.001.003V6.067l.002.005v.005l-.002.002c.002-.004.002-.003.002-.001s0 .004-.002.006V6.132l.001.004c-.003.007 0 .002 0 0v.017-.002.002l.001.004V6.184c0 .002 0 .005-.003.007v-.001.006l-.004.005c-.002.001.003-.005.002-.004l-.002.001c-.005.003-.005.002-.006.004l-.002.002s-.003.004-.006.004H7.65c-.002 0-.007 0-.002-.001h-.003v.004l-.003.006v.002l-.001.001-.002.004c-.002.004-.004.009-.007.011-.004.003-.009.002-.013 0-.002 0-.001-.002-.002-.003a.205.205 0 0 1-.007.01l-.004.004c.002 0-.002.002-.003.003l-.004.003-.004.003-.005.011-.014.013c-.001.001-.003.002-.004.001l-.002.003v.002l.002.008c-.001.005 0 .011-.002.016a.065.065 0 0 1-.014.021v.034c.002.006.002.011.002.016l.009.008c.007.02-.002-.006-.008.006v.001l-.001.005h.013v.005l.027.007v.003-.001.007a.01.01 0 0 1 .003.005h.001c0-.001 0 0 0 0h.003c.002.002.001.005.002.007v.002l.004.008h.001l.002.002c.002 0 .005 0 .007.002.005.003.006.008.008.013v.005l.02.004v.007s0-.001 0 0v.008c.01-.005.015-.008.018.002v.021h.002v.003l.006-.001c-.002-.005 0 0 0 .005v.007l-.002.002V6.547l-.002.002V6.567h.001V6.612c0 .002.002.005.001.006V6.654l-.002.004s.001 0 0 0v.005c0 .003.002.005.001.007v.001l.001.005H7.67v.002c.001 0 .004-.003.004-.001V6.716h-.011l-.003.002-.008.002c-.003.001-.006.004-.009.003-.002 0-.002-.003-.003-.005l-.004-.001c-.002-.002-.002 0-.005-.002v-.001c-.01-.016.007.01-.01-.012-.013-.018-.007-.01-.005-.008l-.002.002c-.006-.002-.011-.003-.016-.006-.002-.001-.003-.004-.003-.006l-.001-.005-.002-.007v-.009h.005l-.005-.001c0-.002.003 0 .004-.001h-.004v-.008c-.002.001-.005.002-.008.001h-.006c-.004 0-.004.002-.01 0-.002 0-.001-.005-.001-.008v-.004l-.001-.007c-.01.01-.026.012-.038.019-.014-.008-.017-.009-.019-.012l-.001-.001-.001-.001A.035.035 0 0 1 7.5 6.63L7.5 6.628a.105.105 0 0 0 .006.01c0-.004 0-.012-.004-.03-.004.006-.005.012-.003.017 0-.004-.002-.007-.003-.01v-.039a.09.09 0 0 0 0-.013c-.006.003-.012.007-.02.008-.014 0-.02-.015-.026-.024-.005-.013-.005-.012-.007-.022v-.007l-.006-.003-.001.001c-.008.003-.016-.005-.023-.01l-.008-.008v1.968H9.36v-.04H9.301l-.025-.003h-.038l-.003.001c-.016.002-.022.004-.04-.003-.007-.003-.013-.008-.02-.012l.087-.1-.003-.002h-.006l-.01-.001c-.008-.003-.014-.003-.02-.008l-.001-.002h-.007c-.007.002-.012.005-.028.008l.018-.01c.004 0 .007.002.01.001l.006-.001-.001-.001a.023.023 0 0 1-.011-.012l-.002.002v.001h-.003c-.01.007-.011.007-.02-.022h-.001v.006l-.002-.001v-.005h-.006c-.018-.003 0 0-.01-.003l-.01-.001-.007-.002a.037.037 0 0 1-.008-.008.011.011 0 0 1-.002-.004.037.037 0 0 1-.001-.016v-.001l.003-.003c.002-.005.005-.01.007-.01h.004v-.002h.002l.003-.002a.173.173 0 0 1 .007-.002H9.188s.001-.002.002-.001h.017l.005.002.004-.001H9.267l.012-.001H9.333c-.001 0-.004.002-.002.002l.002-.001v-.001h.002v-.001h.001l.002-.001.005.002H9.374h-.002c-.002 0-.004.003-.006.004l.004.001.005.002h.001v-.008h.001v.001-.001H9.39s.001 0 0 0c-.005.001 0 0-.007.003.008-.004.011-.004.019-.004v.018c.002 0 .004 0 .006.002l.002.003-.002.005c.004 0 .01 0 .01.005l-.002.004c.005.002.01.002.014.008l.001.001.006.011c.012 0 .011.001.01.03H9.5c-.002 0-.007.003-.005.003l.006-.003h.027l-.008.001-.008.002a.022.022 0 0 0-.007.004c-.004.003-.015.01-.011.009.012-.004.023-.01.035-.015l.003-.001h.002l.007-.001h-.005l.006-.003H9.598v-.002l.004-.004h.002v-.004l.001-.005.002-.011.001-.007a.063.063 0 0 1 .016-.022l.006-.005.007-.004c.008-.006.001-.002.007-.005l.012-.005c.003 0-.001 0 .007-.003l.012-.004h.006v-.005h.006l.001.003v-.003h.003l.004.001s-.002 0 0 0h.03s.002 0 0 0h.004l.002-.002h.042-.001H9.832l.006.002v-.001h.012v.001h.002a.014.014 0 0 1 .006-.001h.007l.008.001h.003c0 .005-.002.004-.002.005s.002 0 .002.005h-.002v.018l.002.007c-.002.01-.006.01-.012.013.001 0 .002 0 .003-.002l-.001.002c-.005.005-.006.005-.013.007l-.006.001h-.001l-.008.005.003.012c0 .002-.003.001-.005.002a.049.049 0 0 1-.018.005l-.022.001h-.004l.001.001c.001.001 0 .002-.001.003l.03.126-.025.003-.008.002H9.77a.106.106 0 0 1-.019.005c-.011.001-.017 0-.02-.001h-.002c-.004-.003-.006-.007-.008-.012l-.002.002v.007l.009.003H9.72l-.001.035h1.92v-1.97c-.003 0-.005 0-.009-.002l-.004-.005-.005.002c0 .008.001.016-.004.026-.003.006-.008.01-.012.016l-.01.008h-.001l-.001.003c-.003.006-.004.016-.01.02l-.01.005c-.001 0-.009.009-.003.002l-.009-.005h-.001l-.008.005h-.001l-.006.003c0 .005.001.004-.01.014 0-.002-.004 0-.005 0l-.002-.003-.003-.004h-.01v.008h-.006v-.002a.45.45 0 0 0 0-.008V6.535l-.001-.001V6.525h.001v-.031h.001v-.035h.001V6.4c-.003-.004-.007-.007-.006-.012 0-.003.004-.002.006-.004V6.37c0-.006.004-.009.009-.01 0-.003 0-.006.003-.008s.007-.002.01-.003c.002-.002-.003 0-.002 0l.006-.006.003-.004.001-.004v-.002l.006-.008v-.002a.593.593 0 0 1-.044.007h-.01v.02h-.168a.067.067 0 0 1-.01-.003H11.263v-.003c-.015-.005-.02-.037-.012-.056-.004-.005-.007-.011-.005-.019.01-.037.024-.04.046-.039-.003-.025-.002-.037.023-.04h.02l.027-.005v-.003s0-.001 0 0c0 0 0 .002.002.003h.001l.002-.033.013-.013.027-.013a.589.589 0 0 0 .061-.03l.038.063h-.001c.002.001.005.003.008.003l-.002-.001.01.001.02.004c.023.004.038.022.036.046a.048.048 0 0 1 .024.013c-.008-.01-.017-.014-.021-.01 0 .002.006.05-.004.067-.003.002-.005.002-.008.002v.001h-.004l-.015.001c.003.012.008.024.006.036h-.003l.005.003v-.003h.002l.004-.008c.004-.003.01-.003.014-.005v-.001l.004-.005h-.001a.02.02 0 0 1 .006-.01c-.004.005-.002.002-.003.007.004-.004.008-.01.013-.012.002-.001.007.004.008.006l.002.005a.045.045 0 0 1 .007-.004c.004-.002.006-.008.01-.01.004-.004.01-.007.016-.009V4.23H9.552c0 .002-.002.004-.005.004l-.018.003v.001H9.55c.004 0 .005.003.004.007l.002-.002.001-.009h.022a.036.036 0 0 1-.007.02h.002c0 .007-.002.004-.002.007h.006v.002-.002.003h.005v.014H9.57l-.004.007a.218.218 0 0 1-.01.01h-.001l-.001.002c-.002 0-.003.002-.005.003H9.55c0 .002.002.001.002.003l-.002.004a.093.093 0 0 1-.02.019v.002c0 .003-.006.004-.009.006l-.004.001-.008.004-.001.003v.006l-.001.004v.002h-.002l-.002.001a.009.009 0 0 1-.005.001H9.451l-.006-.001h-.002c-.002.002-.002.001-.004.001h-.006v.001H9.397c-.002 0-.001 0-.001-.002h-.003l-.001.002v-.002h-.003v.002h-.061v-.002h-.006a.028.028 0 0 1-.009.002h-.017.001v-.012a.205.205 0 0 1-.004.008l-.001-.008c0-.003.003-.004.005-.005v-.004H9.3v-.003c.002-.007.005-.007.008-.007L9.3 4.31l.005-.003c.006-.002.003 0 .007-.001l-.002-.002.006-.015c.001-.002.01-.001.012-.002h.012c-.001-.007-.005-.014-.004-.021 0-.003.005-.003.007-.003h.012l.01.001c0-.001-.003-.001-.001-.005h.004s-.002-.002 0-.002c0-.005-.002-.01 0-.013 0-.002.001-.002.003-.002v-.006c0-.002.004-.002.006-.002h.002-.002s.001 0 0 0l.003.006.001-.001v-.007h.002l.002.002-.001-.002h.007V4.23zm1.893.126h.004V4.34zm.28-.092v.007-.007zm0 .007v.004-.004zm0-.006v-.001.001zm1.786 1.922h-.002v.002c.001.001.002.005.003.003V6.19l-.001-.002zm.196.37h-.003s-.002 0-.003.002l.006-.001zM9.72 8.412h.001c.014-.014.018-.043.014-.069l-.01.007-.002.003v.005c-.002.002-.006.003-.009.004v.004h.005v.044l.002.002zm-.005-.046v.042zM7.597 6.42c0-.001.002 0-.001-.002-.005 0-.019 0-.015.002.004.003.01.003.015.003l.001-.003zm-.001.003-.001.003.006-.002h-.005zm.074-.438v.002-.002Zm1.937-1.72.02.031c.002 0 .003-.002.004-.004V4.29h.003l.006.008.011.005c.006.005.012.01.017.017.016.02.021.035.033.06.008.024.01.026.015.048 0 .002.003.006 0 .007-.01.006-.022.008-.033.012v.016c-.002.007 0 .016-.007.02-.003.002-.006 0-.01.001 0 .005.003.013-.001.013-.008 0-.015-.004-.023-.007l-.001.006c.001.009-.005.01-.016.007l-.008.001v.015h-.001v.003c-.008.003-.016.002-.025.002l.001.004.002.011v.008a.034.034 0 0 1-.008.018v.004l-.013.013h-.002c-.006.003-.01.003-.015.003h.003l-.007.002h-.003l.007-.002c-.013 0-.011.003-.02-.002V4.58c-.003 0-.006.002-.008 0-.001 0-.001-.007-.001-.002a.018.018 0 0 1-.001-.006v-.004c0-.002-.002-.003-.001-.005h.001V4.517h.001v-.003l-.002-.003V4.481c.003.002 0-.001-.002-.004V4.464h.004l.001-.001h-.004l.001-.002V4.423l.002-.004-.001-.005V4.392l-.001.002v-.015c0-.005 0-.006.002-.01.002-.003.003-.001.004-.003v-.002l-.001.002v-.012h.003c.001-.002.005-.004.011-.003h.001v-.003h.013l.001-.002h.001v-.001l.001.002c.002-.01.001-.02.007-.028.002-.002.006 0 .009.002 0-.003 0-.006.002-.008a.05.05 0 0 1 .013-.012l.005-.001a.032.032 0 0 1 0-.021c0-.004.002-.006.004-.009l.006-.004zm-.04.014c.001 0 0 0 0 0zm-.257.07v.002-.002zm-.003.004-.001.002.004-.001h-.003zm.226.007a.04.04 0 0 0-.001.004v.001l.005-.005zm.14.103v.001-.001zm-.097.09-.001.001h.002-.001zm.002.001c.002 0 0 .004 0 .005h.002v-.003l-.002-.002zm-.012.006-.002.004.002-.001V4.56zM7.66 5.968v.002l.003.001-.003-.003zm.01.072.003.003V6.04L7.67 6.04zm-.113.024.005.015v-.003h.002v-.001c-.002-.004-.008-.015-.007-.01zm.007.012-.001.002.001-.002zm-.083.053c0-.003-.004.004-.006.006v.005l.006-.011zm.165.078-.002.003h.001l.001-.003zm3.958.021.004.003c.005.005.002.014.004.022.007-.001.001-.014-.008-.025zm-.027 0-.001.001a.102.102 0 0 0-.002.018l.003.005c.007.004.002-.013 0-.023zm-3.963.006h-.001.002zm-.003 0-.004.004.004-.002v-.001zm-.028.027c0 .004.002.01-.005.014l.006-.005v-.006l-.001-.003zm-.017.037v.003-.003zm4.074.003-.004.002v.001a.034.034 0 0 1-.005.005l-.004.004-.004.001c0 .003-.002.005-.004.007h.002a.036.036 0 0 1 .019.024zm-4.1.026c.002.002.001.004.002.006h.001v.001c.002 0 .002.002.003.004l.003-.006c-.003-.002-.004-.004-.008-.005zm.01.005v.003l.001-.001.002-.004H7.55c.003 0 .001 0 .003-.003 0 .002-.002.002-.003.004l-.002.001zm0 .003-.004.003.002.003.004.009c.003-.008.002-.012-.002-.015zm-.004.003-.002.002.002-.002zm-.121.14-.007.001a.286.286 0 0 0 .02.008c-.006-.003-.008-.005-.013-.01zm4.186.006c-.003.002-.004.006-.003.004.002-.005.002-.003.003-.004zm-.008.003v.001h.001zm-.03.046-.004.003c-.003 0-.001.003 0 .006l.001-.001c.002-.002.003-.006.003-.008zm-.002.008-.001.001v.001-.002zm-3.978.1h-.004.004zm0 0zm-.004 0-.005.001v.001l.005-.002zm2.128 1.775v.003zm0 .007v.035h.002l-.002-.035z" style="fill:red;fill-opacity:1;fill-rule:nonzero;stroke:none;stroke-width:.264583"/></clipPath><clipPath id="e" clipPathUnits="userSpaceOnUse"><path d="M9.587 4.304h-.034l-.001.003a.093.093 0 0 1-.02.018v.002c0 .004-.005.005-.008.007l-.004.001-.008.004-.001.003c0 .004 0 .009-.002.01v.002l-.002-.001-.002.002a.009.009 0 0 1-.005 0H9.486l-.002.001-.005-.001h-.031c0-.002.002-.001-.002 0h-.011v.002H9.399c-.002 0-.001-.001-.001-.002h-.003v.002l-.001-.002h-.002l-.001.002H9.33l-.001-.002h-.004a.028.028 0 0 1-.008.001H9.303h.001V4.34l-.004.014v-.009a.16.16 0 0 1-.004.008l-.002-.008c0-.003.003-.004.005-.005v-.004h.004v-.003c.002-.007.005-.006.007-.007l-.006-.016.004-.003c.005-.002.003 0 .007-.001l-.001-.001H7.578v1.744l.001-.012.002-.009.002-.01.002-.008v-.017h.027l.001-.004v.001h.007v-.007l.006-.006.002-.003.004-.002c.001-.006 0-.008.004-.008s.011.003.027.004v.013c.005 0 .007.001.007.004h.001v.001l.002.005v.004c0 .002 0 .003-.002.005v.004l.002.002v.012c0-.002 0-.002 0 0v.032l-.001.003V6.067l.002.005v.005l-.002.002c.002-.004.002-.003.002-.001s0 .004-.002.006V6.13l.001.005c-.003.007 0 .002 0 0v.017-.002.002l.001.004V6.184c0 .002 0 .005-.003.006v.006l-.004.005c-.002.001.003-.005.002-.004l-.002.001c-.005.003-.005.002-.006.004l-.002.002s-.003.004-.006.004H7.65c-.002 0-.007 0-.002-.001h-.003v.004l-.003.006v.002l-.001.001-.002.004c-.002.004-.004.009-.007.011-.004.003-.009.002-.013 0-.002 0-.001-.002-.002-.003a.205.205 0 0 1-.007.01l-.004.004c.002 0-.002.002-.003.003l-.004.003-.004.003-.005.011-.012.011v.13l.02.005v.003-.001.007a.01.01 0 0 1 .003.005h.002c0-.001 0 0 0 0h.002c.002.002.001.005.002.007v.003l.004.007h.001l.002.002.007.002c.005.003.006.008.008.013v.005l.02.003V6.476v-.001V6.484c.01-.005.015-.009.018.001v.021h.002v.003l.006-.001c-.002-.005 0 .001 0 .006v.007l-.002.002V6.547l-.002.002V6.568h.001V6.613c.001.002.002.004.001.006v.035l-.002.003v.007c0 .003.002.005.001.008l.001.005-.004.001v.002l.004-.001V6.717H7.66c-.002.002-.005.002-.008.003l-.009.003c-.002 0-.002-.004-.003-.006-.003 0-.003 0-.004-.002l-.005-.002c-.01-.016.007.01-.01-.012-.013-.018-.007-.011-.005-.008l-.002.002c-.006-.002-.011-.003-.016-.007-.002 0-.002-.004-.003-.005l-.001-.005-.002-.008v-.008h.005c-.002 0-.005 0-.005-.002h.004-.004V6.65c-.002.002-.005.003-.008.002a.01.01 0 0 1-.005 0v1.636h1.639c-.003-.002-.006-.004-.007-.008l-.002.002v.001h-.003c-.011.007-.011.007-.02-.022h-.002v.006-.001l-.002-.003v-.002h-.005c-.018-.003 0 0-.01-.003l-.01-.001-.007-.002a.037.037 0 0 1-.008-.008l-.002-.004a.037.037 0 0 1 0-.016v-.001l.003-.006v.003c.002-.005.005-.01.007-.01h.002l.002-.002h.001l.003-.002a.173.173 0 0 1 .007-.002H9.333l-.002.001h.002v-.002h.003l.002-.001.005.002H9.374h-.002c-.002 0-.004.002-.006.004h.004l.005.002h.001v-.007H9.39s.001 0 0 0c-.005 0 0 0-.007.003.008-.005.011-.005.019-.005v.018l.006.003.002.002-.002.005c.004.001.01 0 .01.005l-.002.004c.005.002.01.002.014.008l.001.002.006.01c.011 0 .011.004.01.027h.151v-.003l.004-.004h.002v-.004l.001-.005a.07.07 0 0 0 .002-.01l.001-.008a.061.061 0 0 1 .016-.021l.007-.005.006-.004c.008-.006.001-.002.007-.005l.012-.005c.003 0-.001 0 .007-.003.004-.001.008 0 .012-.002h.006v-.008l.003.001h.003l.001.002v-.003h.003l.004.001s-.002 0 0 0H9.724s.002 0 0 0h.004l.002-.002h.042-.001H9.832l.006.002v-.001h.012v.001h.002a.014.014 0 0 1 .006-.001h.007l.008.001h.002v.01h-.001v.018l.002.007c-.002.01-.006.01-.012.013.002 0 .002 0 .003-.002l-.001.002c-.005.005-.006.005-.013.007l-.006.001h-.001l-.008.005.003.012c0 .002-.003.001-.005.002-.005.002-.011.005-.017.005a1.2 1.2 0 0 0-.008 0h1.76V6.56l-.005-.002h-.003c-.002.002-.003.004-.006.005h-.001c-.002.002-.005.002-.007.003 0 .005.002.004-.009.014 0-.002-.005 0-.006 0l-.003-.003c0-.002-.002-.003-.003-.004h-.01v.008h-.006v-.002a.4.4 0 0 0 0-.008V6.535l-.001-.001V6.498l.001-.004h.001V6.397c-.002-.003-.004-.005-.003-.01 0-.003.005-.002.006-.004V6.37c0-.006.004-.009.01-.01 0-.003 0-.006.003-.008s.006-.002.01-.003c.001-.002-.004 0-.003 0l.006-.006.003-.004.001-.004v-.002l.006-.008.002-.003a.593.593 0 0 1-.05.008h-.011v.02h-.167c-.004 0-.007-.002-.01-.003H11.264v-.003c-.016-.005-.02-.037-.012-.056-.004-.005-.008-.011-.006-.019.01-.037.025-.04.047-.038-.004-.026-.002-.038.023-.041h.019c.009-.002.018-.004.028-.004l-.001-.004.002.004h.002l.002-.034c.004-.004.008-.009.013-.012.005-.004.023-.012.027-.014a.589.589 0 0 0 .06-.03l.038.063c.002.001.004.003.007.003l-.001-.001.01.001c.02.003-.008-.001.019.004.014.003.023.01.03.021V4.304H9.655l.015.015c.017.022.021.036.033.06.008.025.01.027.015.049 0 .002.003.005.001.007-.01.006-.022.008-.034.012v.016c-.001.006 0 .016-.006.02-.003.002-.007 0-.01.001 0 .005.003.013-.002.013-.008 0-.015-.004-.022-.008l-.002.007c.002.008-.005.01-.015.006l-.009.002c.001.004.002.006 0 .012v.006c-.008.003-.017.002-.025.002v.004l.003.011-.001.007a.034.034 0 0 1-.007.018v.002l-.001.003-.013.012h-.001c-.006.004-.01.004-.015.004h.002l-.007.002h-.002l.007-.002c-.014-.001-.012.003-.02-.003-.002-.004-.001-.003 0-.004h-.001l-.002.002h-.008v-.002a.018.018 0 0 1-.002-.006V4.57a.06.06 0 0 1 0-.004V4.516h.001V4.49l-.002-.003v-.008c.004.003 0 0-.001-.004v-.012h.004V4.46h-.001v.001h-.003l.001-.002V4.422l.002-.005V4.389l-.001.002v-.015c0-.005 0-.006.002-.01s.003-.002.004-.003c0-.002.004-.005.005-.005h-.003a.04.04 0 0 0-.002.003v.001l-.002.001c0 .008.001 0 .001-.005v-.007h.003c.001-.002.005-.004.01-.003h.002v-.003h.013v-.002h.002v-.002l.001.003c.002-.01.001-.02.007-.028.002-.002.005 0 .008.002.001-.003.001-.006.003-.008a.03.03 0 0 1 .006-.007zm1.777 1.883h-.002v.002c.001.001.002.005.003.003V6.19l-.001-.002zm-3.767.233c0-.001.002 0-.001-.002-.005 0-.019 0-.015.002.004.003.01.003.015.003l.001-.003zm-.001.003-.001.003.006-.002h-.005zm.074-.438v.002-.002ZM9.31 4.35v.002-.002zm-.003.004-.001.002.004-.001h-.003zm-.009.003H9.3v.001h-.002zm.23.064v.001-.001zm.144.043v.001-.001zm-.096.09-.001.001h.002-.001zm.002.001c.002 0 0 .004 0 .005h.002v-.003l-.002-.002zm-.012.006-.002.004.002-.001V4.56zM7.66 5.968v.002l.003.001-.003-.003zm.01.072.003.003V6.04L7.67 6.04zm-.024.167-.002.003h.001l.001-.003zm-.032.027h-.001.002zm-.003 0-.004.004.004-.002v-.001zm-.028.027c0 .003 0 .008-.004.013l.005-.004v-.006l-.001-.003zm3.988.024h-.002v.001c0 .002-.003 0-.004 0l-.015.001c.003.012.008.024.006.036v.001l.007.002v-.003h.002c0-.002.001-.006.004-.008h.002zm-.013.271-.003.003.006-.001zm-3.965.084-.004.001h.004zm0 0v.001zm-.004.001-.005.001v.001l.005-.002z" style="fill:red;fill-opacity:1;fill-rule:nonzero;stroke:none;stroke-width:.264583"/></clipPath><filter id="c" width="1" height="1" x="0" y="0" style="color-interpolation-filters:sRGB"><feGaussianBlur/></filter></defs><path d="M2.114 2.117h8.468l-6.356 6.34" clip-path="url(#a)" style="fill:none;stroke:#fff;stroke-width:.26458300000000001px;stroke-linecap:butt;stroke-linejoin:miter;stroke-opacity:1"/><path d="M9.52 4.23 7.406 6.343 9.52 8.457l2.115-2.102" clip-path="url(#b)" style="fill:none;stroke:#fff;stroke-width:.13229167;stroke-linecap:butt;stroke-linejoin:miter;stroke-opacity:1;filter:url(#c);stroke-miterlimit:4;stroke-dasharray:none"/><path d="M2.114 10.59h8.468L4.226 4.23" clip-path="url(#d)" style="fill:none;stroke:#fff;stroke-width:.26458300000000001px;stroke-linecap:butt;stroke-linejoin:miter;stroke-opacity:1"/><path d="m9.656 4.351-1.985 1.99 1.85 1.849 1.988-1.987" clip-path="url(#e)" style="fill:none;stroke:#fff;stroke-width:.132292;stroke-linecap:butt;stroke-linejoin:miter;stroke-miterlimit:4;stroke-dasharray:none;stroke-opacity:1"/><path d="m10.393 7.225-.87-.883M10.462 7.16l-.87-.884M10.532 7.096l-.87-.884" style="fill:#fff;stroke:#fff;stroke-width:.0661458;stroke-linecap:butt;stroke-linejoin:miter;stroke-miterlimit:4;stroke-dasharray:none;stroke-opacity:1"/></svg>